<svg xmlns="http://www.w3.org/2000/svg" width="20" height="20" fill="none"><g stroke="#fff" stroke-linecap="round" stroke-linejoin="round" clip-path="url(#a)"><path stroke-width="1.5" d="m.833.833 18.334 18.334M12.5 7.783v-4.45a2.5 2.5 0 0 0-4.95-.5M7.5 7.5V10a2.5 2.5 0 0 0 4.267 1.767L7.5 7.5Z"/><path stroke-width="1.5" d="M15.833 8.333V10c0 .344-.03.687-.091 1.025m-1.575 3.1a5.833 5.833 0 0 1-10-4.125V8.333l10 5.792Z"/><path stroke-width="2" d="M10 15.833v3.334"/><path stroke-width="1.5" d="M6.667 19.167h6.666"/></g><defs><clipPath id="a"><path fill="#fff" d="M0 0h20v20H0z"/></clipPath></defs></svg>